<svg width="117" height="24" viewBox="0 0 117 24" fill="none" xmlns="http://www.w3.org/2000/svg">
<path d="M5.68 24C3.86667 24 2.53333 23.92 1.68 23.76C0.826667 23.6 0.4 23.4133 0.4 23.2L2 19.72C2.61333 19.8267 4.13333 19.9333 6.56 20.04C9.01333 20.12 12.3733 20.16 16.64 20.16H17.4C18.5467 20.16 19.36 19.96 19.84 19.56C20.32 19.1333 20.56 18.4267 20.56 17.44V16.64C20.56 15.7067 20.36 15.04 19.96 14.64C19.5867 14.24 18.7333 14.04 17.4 14.04H8.12C5.42667 14.04 3.46667 13.5467 2.24 12.56C1.01333 11.5467 0.4 9.90667 0.4 7.64V7C0.4 5.82667 0.613333 4.74667 1.04 3.76C1.49333 2.77333 2.25333 1.98667 3.32 1.4C4.38667 0.786667 5.85333 0.48 7.72 0.48H18.6C20.4133 0.48 21.88 0.573333 23 0.759999C24.12 0.946666 24.68 1.14667 24.68 1.36L23.88 4.72C23.1867 4.64 21.6133 4.56 19.16 4.48C16.7067 4.37333 13.4133 4.32 9.28 4.32L8.84 4.28C7.61333 4.28 6.78667 4.53333 6.36 5.04C5.93333 5.52 5.70667 6.13333 5.68 6.88V7.56C5.68 8.44 5.92 9.10667 6.4 9.56C6.90667 9.98667 7.73333 10.2 8.88 10.2H17.76C19.4667 10.2 20.92 10.3733 22.12 10.72C23.32 11.0667 24.24 11.7067 24.88 12.64C25.52 13.5467 25.84 14.8933 25.84 16.68V17.32C25.84 19.32 25.32 20.9333 24.28 22.16C23.2667 23.3867 21.4933 24 18.96 24H5.68ZM40.1944 24L29.0344 0.52H34.6344L42.1544 16.72L43.2344 19.6H43.5944L44.6344 16.72L52.2344 0.52H57.6744L57.0344 2.92L46.5944 24H40.1944ZM61.6875 24V0.48H86.5675V4.32H66.9675V9.84H81.9275V13.8H66.9675V20.16H86.7275L88.3275 23.56C88.3275 23.6667 87.9675 23.7733 87.2475 23.88C86.5275 23.96 85.2875 24 83.5275 24H61.6875ZM100.752 24L100.712 4.28H90.3125V0.439998H116.472V4.28H106.032V24H100.752Z" fill="white"/>
</svg>
