<svg width="258" height="258" viewBox="0 0 258 258" fill="none" xmlns="http://www.w3.org/2000/svg">
<path d="M130.287 137.385C129.535 137.278 128.567 137.278 127.707 137.385C108.787 136.74 93.7371 121.26 93.7371 102.232C93.7371 82.7748 109.432 66.9723 128.997 66.9723C148.455 66.9723 164.257 82.7748 164.257 102.232C164.15 121.26 149.207 136.74 130.287 137.385Z" fill="white" stroke="white" stroke-width="1.5" stroke-linecap="round" stroke-linejoin="round"/>
<path d="M201.452 208.336C182.317 225.858 156.947 236.501 128.997 236.501C101.047 236.501 75.6775 225.858 56.5425 208.336C57.6175 198.231 64.0675 188.341 75.57 180.601C105.025 161.036 153.185 161.036 182.425 180.601C193.927 188.341 200.377 198.231 201.452 208.336Z" fill="white" stroke="white" stroke-width="1.5" stroke-linecap="round" stroke-linejoin="round"/>
<path d="M129 236.5C188.37 236.5 236.5 188.37 236.5 129C236.5 69.6294 188.37 21.5 129 21.5C69.6294 21.5 21.5 69.6294 21.5 129C21.5 188.37 69.6294 236.5 129 236.5Z" stroke="white" stroke-width="1.5" stroke-linecap="round" stroke-linejoin="round"/>
</svg>
