<svg width="60" height="60" viewBox="0 0 60 60" fill="none" xmlns="http://www.w3.org/2000/svg">
<g clip-path="url(#clip0_5_153)">
<rect width="60" height="60" fill="black"/>
<path d="M30 60C46.5685 60 60 46.5685 60 30C60 13.4315 46.5685 0 30 0C13.4315 0 0 13.4315 0 30C0 46.5685 13.4315 60 30 60Z" fill="url(#paint0_linear_5_153)"/>
<path fill-rule="evenodd" clip-rule="evenodd" d="M13.5797 29.6834C22.3253 25.8731 28.1571 23.3611 31.0751 22.1474C39.4064 18.6821 41.1376 18.0801 42.2659 18.0603C42.5141 18.0559 43.069 18.1174 43.4284 18.4091C43.7319 18.6553 43.8154 18.988 43.8554 19.2215C43.8953 19.455 43.9451 19.9869 43.9055 20.4025C43.4541 25.1462 41.5005 36.6579 40.5067 41.971C40.0861 44.2191 39.2581 44.9729 38.4565 45.0467C36.7143 45.207 35.3914 43.8953 33.704 42.7893C31.0636 41.0584 29.572 39.981 27.009 38.2921C24.0471 36.3402 25.9672 35.2674 27.6552 33.5142C28.097 33.0553 35.7729 26.0734 35.9215 25.4401C35.9401 25.3609 35.9573 25.0656 35.7819 24.9097C35.6065 24.7538 35.3476 24.8071 35.1608 24.8495C34.896 24.9096 30.6779 27.6976 22.5066 33.2134C21.3093 34.0356 20.2249 34.4362 19.2532 34.4152C18.1821 34.392 16.1216 33.8095 14.5898 33.3116C12.7111 32.7009 11.2179 32.378 11.3479 31.3408C11.4156 30.8006 12.1596 30.2481 13.5797 29.6834Z" fill="black"/>
</g>
<defs>
<linearGradient id="paint0_linear_5_153" x1="30" y1="0" x2="30" y2="59.555" gradientUnits="userSpaceOnUse">
<stop stop-color="white"/>
<stop offset="0.0001" stop-color="#2BA2DB"/>
<stop offset="0.0002" stop-color="white"/>
</linearGradient>
<clipPath id="clip0_5_153">
<rect width="60" height="60" fill="white"/>
</clipPath>
</defs>
</svg>
