<svg width="60" height="60" viewBox="0 0 60 60" fill="none" xmlns="http://www.w3.org/2000/svg">
<path fill-rule="evenodd" clip-rule="evenodd" d="M4.21766 4.21766C0 8.43532 0 15.2235 0 28.8L0 31.2C0 44.7764 0 51.5647 4.21766 55.7823C8.43532 60 15.2235 60 28.8 60H28.8L31.2 60H31.2C44.7765 60 51.5647 60 55.7823 55.7823C60 51.5647 60 44.7764 60 31.2L60 28.8C60 15.2235 60 8.43532 55.7823 4.21766C51.5647 0 44.7765 0 31.2 0L28.8 0C15.2236 0 8.43532 0 4.21766 4.21766ZM10.1251 18.25C10.4501 33.85 18.25 43.225 31.925 43.225H32.7002V34.3C37.7252 34.8 41.5249 38.475 43.0499 43.225H50.1501C48.2001 36.125 43.0748 32.2 39.8748 30.7C43.0748 28.85 47.5749 24.35 48.6499 18.25L42.1997 18.25C40.7997 23.2 36.6502 27.7 32.7002 28.125V18.25H26.25V35.55C22.25 34.55 17.2001 29.7 16.9751 18.25L10.1251 18.25Z" fill="white"/>
</svg>
