<svg width="60" height="60" viewBox="0 0 60 60" fill="none" xmlns="http://www.w3.org/2000/svg">
<g clip-path="url(#clip0_5_160)">
<rect width="60" height="60" fill="black"/>
<path fill-rule="evenodd" clip-rule="evenodd" d="M51.2577 8.71251C45.6182 3.09696 38.1177 0.00284909 30.126 0C13.6585 0 0.25641 13.3266 0.25068 29.7075C0.247815 34.944 1.62441 40.0553 4.23865 44.5598L0 59.9562L15.8373 55.825C20.2005 58.1927 25.1138 59.4391 30.1132 59.4406H30.126C46.5907 59.4406 59.9943 46.1125 60 29.7317C60.0028 21.7928 56.8987 14.3295 51.2577 8.71394V8.71251ZM30.126 54.4233H30.116C25.661 54.422 21.2907 53.2309 17.4775 50.9816L16.5707 50.4461L7.17233 52.8976L9.68057 43.7848L9.09038 42.8503C6.60507 38.9186 5.2915 34.3742 5.29437 29.709C5.3001 16.0945 16.4389 5.01724 30.1362 5.01724C36.7683 5.02009 43.0025 7.59141 47.6908 12.2596C52.3793 16.9265 54.9592 23.1318 54.9563 29.7288C54.9505 43.3447 43.8118 54.422 30.126 54.422V54.4233ZM43.7458 35.9299C42.9995 35.5581 39.3297 33.7631 38.6448 33.5153C37.9602 33.2673 37.4632 33.1435 36.966 33.8871C36.469 34.6308 35.038 36.3032 34.6025 36.7974C34.167 37.2932 33.7315 37.3545 32.9852 36.9825C32.239 36.6108 29.8338 35.8273 26.9818 33.2987C24.763 31.3299 23.2645 28.8998 22.8292 28.1561C22.3937 27.4125 22.7833 27.0108 23.1557 26.6418C23.4908 26.3085 23.902 25.7743 24.2758 25.3412C24.6498 24.9081 24.773 24.5977 25.0222 24.1033C25.2715 23.6075 25.1468 23.1746 24.9607 22.8027C24.7743 22.4309 23.2818 18.7769 22.6587 17.2911C22.0527 15.8438 21.4368 16.0404 20.9798 16.0162C20.5443 15.9948 20.0473 15.9905 19.5488 15.9905C19.0503 15.9905 18.2423 16.1757 17.5577 16.9193C16.873 17.6629 14.9448 19.4592 14.9448 23.1118C14.9448 26.7643 17.6193 30.2959 17.9932 30.7916C18.367 31.2874 23.2573 38.7847 30.7448 42.0013C32.5255 42.7662 33.9163 43.2235 35.0007 43.5655C36.7885 44.131 38.4157 44.0513 39.702 43.8603C41.136 43.6467 44.1183 42.064 44.74 40.3303C45.3617 38.5966 45.3617 37.1093 45.1755 36.8002C44.9893 36.4911 44.4908 36.3045 43.7445 35.9327L43.7458 35.9299Z" fill="white"/>
</g>
<defs>
<clipPath id="clip0_5_160">
<rect width="60" height="60" fill="white"/>
</clipPath>
</defs>
</svg>
