<?xml version="1.0" encoding="utf-8"?><svg viewBox="0 0 258 258" xmlns="http://www.w3.org/2000/svg" xmlns:xlink="http://www.w3.org/1999/xlink"><style>:root>svg{display:none}:root>svg:target{display:block}</style><svg viewBox="0 0 23 23" id="complects" xmlns="http://www.w3.org/2000/svg"><circle cx="11.5" cy="11.5" r="11.5" transform="matrix(1 0 0 -1 0 23)"/><path d="M11.5 8.344l6.708 6.709.678-.678L11.5 6.989l-7.386 7.386.678.678L11.5 8.344z"/></svg><svg viewBox="0 0 50 50" id="last" xmlns="http://www.w3.org/2000/svg"><circle cx="25" cy="25" r="25" transform="matrix(0 -1 -1 0 50 50)"/><path d="M18.14 25l14.583-14.583-1.473-1.473L15.194 25 31.25 41.057l1.473-1.473L18.14 25z"/></svg><svg viewBox="0 0 117 24" id="logo" xmlns="http://www.w3.org/2000/svg"><path d="M5.68 24c-1.813 0-3.147-.08-4-.24C.827 23.6.4 23.413.4 23.2L2 19.72c.613.107 2.133.213 4.56.32 2.453.08 5.813.12 10.08.12h.76c1.147 0 1.96-.2 2.44-.6.48-.427.72-1.133.72-2.12v-.8c0-.933-.2-1.6-.6-2-.373-.4-1.227-.6-2.56-.6H8.12c-2.693 0-4.653-.493-5.88-1.48C1.013 11.547.4 9.907.4 7.64V7c0-1.173.213-2.253.64-3.24.453-.987 1.213-1.773 2.28-2.36C4.387.787 5.853.48 7.72.48H18.6c1.813 0 3.28.093 4.4.28 1.12.187 1.68.387 1.68.6l-.8 3.36c-.693-.08-2.267-.16-4.72-.24-2.453-.107-5.747-.16-9.88-.16l-.44-.04c-1.227 0-2.053.253-2.48.76-.427.48-.653 1.093-.68 1.84v.68c0 .88.24 1.547.72 2 .507.427 1.333.64 2.48.64h8.88c1.707 0 3.16.173 4.36.52 1.2.347 2.12.987 2.76 1.92.64.907.96 2.253.96 4.04v.64c0 2-.52 3.613-1.56 4.84-1.013 1.227-2.787 1.84-5.32 1.84H5.68zm34.514 0L29.034.52h5.6l7.52 16.2 1.08 2.88h.36l1.04-2.88 7.6-16.2h5.44l-.64 2.4L46.594 24h-6.4zm21.493 0V.48h24.88v3.84h-19.6v5.52h14.96v3.96h-14.96v6.36h19.76l1.6 3.4c0 .107-.36.213-1.08.32-.72.08-1.96.12-3.72.12h-21.84zm39.065 0l-.04-19.72h-10.4V.44h26.16v3.84h-10.44V24h-5.28z"/></svg><svg viewBox="0 0 50 50" id="next" xmlns="http://www.w3.org/2000/svg"><circle cx="25" cy="25" r="25" transform="matrix(0 1 1 0 0 0)"/><path d="M31.86 25L17.277 39.583l1.473 1.473L34.806 25 18.75 8.943l-1.473 1.473L31.86 25z"/></svg><svg viewBox="0 0 18 18" id="plus" xmlns="http://www.w3.org/2000/svg"><path d="M9 1v8m0 0v8m0-8H1m8 0h8"/></svg><svg viewBox="0 0 258 258" id="profile" xmlns="http://www.w3.org/2000/svg"><path d="M130.287 137.385c-.752-.107-1.72-.107-2.58 0-18.92-.645-33.97-16.125-33.97-35.153 0-19.457 15.695-35.26 35.26-35.26 19.458 0 35.26 15.803 35.26 35.26-.107 19.028-15.05 34.508-33.97 35.153zm71.165 70.951c-19.135 17.522-44.505 28.165-72.455 28.165-27.95 0-53.32-10.643-72.455-28.165 1.075-10.105 7.525-19.995 19.028-27.735 29.455-19.565 77.615-19.565 106.855 0 11.502 7.74 17.952 17.63 19.027 27.735z"/><path d="M129 236.5c59.37 0 107.5-48.13 107.5-107.5S188.37 21.5 129 21.5 21.5 69.63 21.5 129 69.63 236.5 129 236.5z"/></svg><svg viewBox="0 0 60 60" id="tg" xmlns="http://www.w3.org/2000/svg"><g clip-path="url(#ga)"><path d="M0 0h60v60H0z"/><path d="M30 60c16.569 0 30-13.431 30-30C60 13.431 46.569 0 30 0 13.431 0 0 13.431 0 30c0 16.569 13.431 30 30 30z"/><path fill-rule="evenodd" clip-rule="evenodd" d="M13.58 29.683c8.745-3.81 14.577-6.322 17.495-7.536 8.331-3.465 10.063-4.067 11.19-4.087.25-.004.804.057 1.163.35.304.245.387.578.427.811.04.234.09.766.05 1.181-.45 4.744-2.404 16.256-3.398 21.569-.42 2.248-1.249 3.002-2.05 3.076-1.743.16-3.066-1.152-4.753-2.258-2.64-1.73-4.132-2.808-6.695-4.497-2.962-1.952-1.042-3.025.646-4.778.442-.459 8.118-7.44 8.267-8.074.018-.08.035-.374-.14-.53-.175-.156-.434-.103-.621-.06-.265.06-4.483 2.848-12.654 8.363-1.198.823-2.282 1.223-3.254 1.202-1.07-.023-3.131-.605-4.663-1.103-1.879-.611-3.372-.934-3.242-1.971.068-.54.812-1.093 2.232-1.658z"/></g><defs><linearGradient id="gb" x1="30" y1="0" x2="30" y2="59.555" gradientUnits="userSpaceOnUse"><stop stop-color="#fff"/><stop offset="0" stop-color="#2BA2DB"/><stop offset="0" stop-color="#fff"/></linearGradient><clipPath id="ga"><path d="M0 0h60v60H0z"/></clipPath></defs></svg><svg viewBox="0 0 60 60" id="vk" xmlns="http://www.w3.org/2000/svg"><path fill-rule="evenodd" clip-rule="evenodd" d="M4.218 4.218C0 8.435 0 15.223 0 28.8v2.4c0 13.576 0 20.365 4.218 24.582C8.435 60 15.223 60 28.8 60h2.4c13.576 0 20.365 0 24.582-4.218C60 51.565 60 44.776 60 31.2v-2.4c0-13.577 0-20.365-4.218-24.582C51.565 0 44.777 0 31.2 0h-2.4C15.224 0 8.435 0 4.218 4.218zm5.907 14.032c.325 15.6 8.125 24.975 21.8 24.975h.775V34.3c5.025.5 8.825 4.175 10.35 8.925h7.1C48.2 36.125 43.075 32.2 39.875 30.7c3.2-1.85 7.7-6.35 8.775-12.45H42.2c-1.4 4.95-5.55 9.45-9.5 9.875V18.25h-6.45v17.3c-4-1-9.05-5.85-9.275-17.3h-6.85z"/></svg><svg viewBox="0 0 60 60" id="whats" xmlns="http://www.w3.org/2000/svg"><g clip-path="url(#ia)"><path d="M0 0h60v60H0z"/><path fill-rule="evenodd" clip-rule="evenodd" d="M51.258 8.713C45.618 3.097 38.118.003 30.126 0 13.658 0 .256 13.327.251 29.707A29.52 29.52 0 004.239 44.56L0 59.956l15.837-4.131a29.966 29.966 0 0014.276 3.616h.013c16.465 0 29.868-13.329 29.874-29.71.003-7.938-3.101-15.402-8.742-21.017v-.001zm-21.132 45.71h-.01a24.904 24.904 0 01-12.639-3.441l-.906-.536-9.399 2.452 2.509-9.113-.59-.935a24.53 24.53 0 01-3.798-13.14C5.3 16.095 16.44 5.017 30.136 5.017c6.632.003 12.866 2.574 17.555 7.243 4.688 4.667 7.268 10.872 7.265 17.469-.006 13.616-11.144 24.693-24.83 24.693v.001zm13.62-18.493c-.747-.372-4.416-2.167-5.101-2.415-.685-.248-1.182-.371-1.679.372-.497.744-1.928 2.416-2.364 2.91-.435.496-.87.558-1.617.186-.746-.372-3.151-1.156-6.003-3.684-2.219-1.97-3.717-4.4-4.153-5.143-.435-.743-.046-1.145.327-1.514.335-.334.746-.868 1.12-1.3.374-.434.497-.744.746-1.239.25-.495.125-.928-.061-1.3-.187-.372-1.68-4.026-2.302-5.512-.606-1.447-1.222-1.25-1.68-1.275a30.281 30.281 0 00-1.43-.025c-.499 0-1.307.185-1.991.928-.685.744-2.613 2.54-2.613 6.193 0 3.652 2.674 7.184 3.048 7.68.374.495 5.264 7.993 12.752 11.21A42.99 42.99 0 0035 43.564c1.788.566 3.415.486 4.701.295 1.434-.213 4.416-1.796 5.038-3.53.622-1.733.622-3.22.435-3.53-.186-.309-.684-.495-1.43-.867v-.003z"/></g><defs><clipPath id="ia"><path d="M0 0h60v60H0z"/></clipPath></defs></svg></svg>