<?xml version="1.0" encoding="utf-8"?><svg viewBox="0 0 117 24" xmlns="http://www.w3.org/2000/svg" xmlns:xlink="http://www.w3.org/1999/xlink"><style>:root>svg{display:none}:root>svg:target{display:block}</style><svg viewBox="0 0 117 24" id="logo" xmlns="http://www.w3.org/2000/svg"><path d="M5.68 24c-1.813 0-3.147-.08-4-.24C.827 23.6.4 23.413.4 23.2L2 19.72c.613.107 2.133.213 4.56.32 2.453.08 5.813.12 10.08.12h.76c1.147 0 1.96-.2 2.44-.6.48-.427.72-1.133.72-2.12v-.8c0-.933-.2-1.6-.6-2-.373-.4-1.227-.6-2.56-.6H8.12c-2.693 0-4.653-.493-5.88-1.48C1.013 11.547.4 9.907.4 7.64V7c0-1.173.213-2.253.64-3.24.453-.987 1.213-1.773 2.28-2.36C4.387.787 5.853.48 7.72.48H18.6c1.813 0 3.28.093 4.4.28 1.12.187 1.68.387 1.68.6l-.8 3.36c-.693-.08-2.267-.16-4.72-.24-2.453-.107-5.747-.16-9.88-.16l-.44-.04c-1.227 0-2.053.253-2.48.76-.427.48-.653 1.093-.68 1.84v.68c0 .88.24 1.547.72 2 .507.427 1.333.64 2.48.64h8.88c1.707 0 3.16.173 4.36.52 1.2.347 2.12.987 2.76 1.92.64.907.96 2.253.96 4.04v.64c0 2-.52 3.613-1.56 4.84-1.013 1.227-2.787 1.84-5.32 1.84H5.68zm34.514 0L29.034.52h5.6l7.52 16.2 1.08 2.88h.36l1.04-2.88 7.6-16.2h5.44l-.64 2.4L46.594 24h-6.4zm21.493 0V.48h24.88v3.84h-19.6v5.52h14.96v3.96h-14.96v6.36h19.76l1.6 3.4c0 .107-.36.213-1.08.32-.72.08-1.96.12-3.72.12h-21.84zm39.065 0l-.04-19.72h-10.4V.44h26.16v3.84h-10.44V24h-5.28z"/></svg></svg>